<svg width="12" height="14" viewBox="0 0 12 14" fill="none" xmlns="http://www.w3.org/2000/svg">
<path d="M2.69287 10.1407C2.69287 10.4607 2.954 10.7218 3.27529 10.7218H3.94111V12.3679C3.94111 12.7849 4.27607 13.1253 4.6876 13.1253C5.10049 13.1253 5.43408 12.7862 5.43408 12.3679V10.7204H6.59619V12.3665C6.59619 12.7835 6.93115 13.1239 7.34268 13.1239C7.75557 13.1239 8.08916 12.7849 8.08916 12.3665V10.7204H8.75498C9.07627 10.7204 9.3374 10.4593 9.3374 10.1394V4.73624H2.69287V10.1407V10.1407ZM7.5751 1.93624L8.18896 1.04757C8.22451 0.995614 8.21631 0.925887 8.16846 0.891707C8.12061 0.858895 8.05225 0.875301 8.0167 0.927254L7.37959 1.85147C6.95986 1.68604 6.49228 1.59444 6.00146 1.59444C5.51064 1.59444 5.04307 1.68604 4.62334 1.85147L3.98623 0.928621C3.95068 0.876668 3.88232 0.858895 3.83447 0.893075C3.78662 0.925887 3.77842 0.994246 3.81396 1.04893L4.42783 1.93761C3.45166 2.39151 2.76807 3.25147 2.68057 4.25636H9.3251C9.23486 3.25011 8.5499 2.39014 7.5751 1.93624V1.93624ZM4.59873 3.33761C4.52599 3.33761 4.45489 3.31604 4.39441 3.27562C4.33393 3.23521 4.28679 3.17777 4.25895 3.11057C4.23112 3.04337 4.22383 2.96942 4.23802 2.89808C4.25221 2.82674 4.28724 2.76121 4.33868 2.70978C4.39011 2.65834 4.45564 2.62332 4.52698 2.60913C4.59832 2.59493 4.67227 2.60222 4.73947 2.63005C4.80667 2.65789 4.86411 2.70503 4.90452 2.76551C4.94493 2.82599 4.9665 2.89709 4.9665 2.96983C4.96625 3.06729 4.92742 3.16069 4.85851 3.22961C4.78959 3.29852 4.69619 3.33735 4.59873 3.33761V3.33761ZM7.44795 3.33761C7.37521 3.33761 7.3041 3.31604 7.24362 3.27562C7.18314 3.23521 7.13601 3.17777 7.10817 3.11057C7.08034 3.04337 7.07305 2.96942 7.08724 2.89808C7.10143 2.82674 7.13646 2.76121 7.18789 2.70978C7.23933 2.65834 7.30486 2.62332 7.3762 2.60913C7.44754 2.59493 7.52149 2.60222 7.58869 2.63005C7.65589 2.65789 7.71333 2.70503 7.75374 2.76551C7.79415 2.82599 7.81572 2.89709 7.81572 2.96983C7.81547 3.06729 7.77664 3.16069 7.70773 3.22961C7.63881 3.29852 7.54541 3.33735 7.44795 3.33761ZM10.5022 4.71436C10.0894 4.71436 9.75576 5.05343 9.75576 5.47179V8.43038C9.75576 8.84737 10.0907 9.1878 10.5022 9.1878C10.9151 9.1878 11.2487 8.84874 11.2487 8.43038V5.47042C11.2501 5.05206 10.9165 4.71436 10.5022 4.71436ZM1.49795 4.71436C1.08506 4.71436 0.751465 5.05343 0.751465 5.47179V8.43038C0.751465 8.84737 1.08643 9.1878 1.49795 9.1878C1.91084 9.1878 2.24443 8.84874 2.24443 8.43038V5.47042C2.24443 5.05206 1.90947 4.71436 1.49795 4.71436Z" fill="black" fill-opacity="0.85"/>
</svg>
