<svg width="12" height="12" viewBox="0 0 12 12" fill="none" xmlns="http://www.w3.org/2000/svg">
<path fill-rule="evenodd" clip-rule="evenodd" d="M10.6225 1.93754C10.938 2.24613 11.1903 2.61328 11.3653 3.01845C11.5467 3.44011 11.6394 3.88788 11.6381 4.3487C11.6381 4.78341 11.5493 5.2364 11.3731 5.69723C11.2269 6.08233 11.0141 6.4818 10.7439 6.88518C10.3157 7.52355 9.72694 8.18933 8.99589 8.86424C7.78313 9.98301 6.58473 10.7545 6.53381 10.7872L6.22442 10.9856C6.08735 11.0731 5.91112 11.0731 5.77404 10.9856L5.46465 10.7872C5.41374 10.7558 4.21403 9.98301 3.00258 8.86424C2.27153 8.18933 1.68277 7.52355 1.25458 6.88518C0.984356 6.4818 0.772873 6.08233 0.625357 5.69723C0.449122 5.2364 0.360352 4.78341 0.360352 4.3487C0.360352 3.88788 0.453038 3.44011 0.634496 3.01845C0.809005 2.61302 1.06137 2.24578 1.3773 1.93754C1.69452 1.62684 2.06396 1.38272 2.47387 1.21301C2.89814 1.03678 3.34722 0.948007 3.81065 0.948007C4.45424 0.948007 5.08216 1.12424 5.62783 1.45713C5.75838 1.53676 5.8824 1.62423 5.99989 1.71953C6.11738 1.62423 6.24139 1.53676 6.37194 1.45713C6.91762 1.12424 7.54554 0.948007 8.18912 0.948007C8.64787 0.946951 9.10225 1.03703 9.5259 1.21301C9.93446 1.38206 10.3067 1.62802 10.6225 1.93754ZM1.35249 4.3487C1.35249 6.97526 5.99989 9.95299 5.99989 9.95299C5.99989 9.95299 5.99992 9.95296 6 9.95291C5.97573 9.93735 1.3527 6.96835 1.3527 4.34869C1.3527 3.06913 2.37091 2.02269 3.6568 1.94479C2.37081 2.02259 1.35249 3.06908 1.35249 4.3487ZM8.03386 1.94487C7.14572 1.99909 6.38507 2.51519 5.99999 3.25061C6.00003 3.25067 6.00006 3.25074 6.0001 3.2508C6.38511 2.51533 7.14573 1.99916 8.03386 1.94487Z" fill="#2F54EB"/>
</svg>
